ply
format ascii 1.0
comment Created by Open Asset Import Library - http://assimp.sf.net (v3.1.187496374)
element vertex 48
property float x
property float y
property float z
property float nx
property float ny
property float nz
element face 28
property list uint uint vertex_index
end_header
-39.902 28.75 68.108 0 -1 0
-39.902 28.75 63.108 0 -1 0
23.097 28.75 63.108 0 -1 0
23.097 28.75 68.108 0 -1 0
-39.913 28.75 68.108 0 -1 0
-28.403 28.75 118.108 0 -1 0
11.597 28.75 118.108 0 -1 0
23.107 28.75 68.108 0 -1 0
23.097 58.75 68.108 0 1 0
23.097 58.75 63.108 0 1 0
-39.902 58.75 63.108 0 1 0
-39.902 58.75 68.108 0 1 0
11.597 58.75 118.108 0 1 0
23.107 58.75 68.108 0 1 0
-28.403 58.75 118.108 0 1 0
-39.913 58.75 68.108 0 1 0
-39.902 58.75 63.108 -1 0 0
-39.902 28.75 63.108 -1 0 0
-39.902 28.75 68.108 -1 0 0
-39.902 58.75 68.108 -1 0 0
23.097 58.75 63.108 0 0 -1
23.097 28.75 63.108 0 0 -1
-39.902 28.75 63.108 0 0 -1
-39.902 58.75 63.108 0 0 -1
23.097 28.75 68.108 1 0 0
23.097 28.75 63.108 1 0 0
23.097 58.75 63.108 1 0 0
23.097 58.75 68.108 1 0 0
-39.913 58.75 68.108 0 0 -1
-39.902 58.75 68.108 0 0 -1
-39.902 28.75 68.108 0 0 -1
-39.913 28.75 68.108 0 0 -1
23.097 58.75 68.108 0 0 -1
23.107 58.75 68.108 0 0 -1
23.107 28.75 68.108 0 0 -1
23.097 28.75 68.108 0 0 -1
-28.403 58.75 118.108 -0.974513 0 0.224333
-39.913 58.75 68.108 -0.974513 0 0.224333
-39.913 28.75 68.108 -0.974513 0 0.224333
-28.403 28.75 118.108 -0.974513 0 0.224333
23.107 58.75 68.108 0.974513 0 0.224333
11.597 58.75 118.108 0.974513 0 0.224333
11.597 28.75 118.108 0.974513 0 0.224333
23.107 28.75 68.108 0.974513 0 0.224333
11.597 58.75 118.108 0 0 1
-28.403 58.75 118.108 0 0 1
-28.403 28.75 118.108 0 0 1
11.597 28.75 118.108 0 0 1
3 0 1 2
3 0 2 3
3 4 0 5
3 6 5 0
3 0 3 6
3 7 6 3
3 8 9 10
3 8 10 11
3 8 11 12
3 13 8 12
3 14 12 11
3 15 14 11
3 16 17 18
3 16 18 19
3 20 21 22
3 20 22 23
3 24 25 26
3 24 26 27
3 28 29 30
3 28 30 31
3 32 33 34
3 32 34 35
3 36 37 38
3 36 38 39
3 40 41 42
3 40 42 43
3 44 45 46
3 44 46 47
