ply
format ascii 1.0
comment Created by Open Asset Import Library - http://assimp.sf.net (v3.1.187496374)
element vertex 294
property float x
property float y
property float z
property float nx
property float ny
property float nz
element face 192
property list uint uint vertex_index
end_header
21 59.603 8 0 0.8 -0.6
-5 59.603 8 0 0.8 -0.6
-5 80.816 36.284 0 0.8 -0.6
21 80.816 36.284 0 0.8 -0.6
22 42.159 66.877 1 0 0
22 51.167 45.13 1 0 0
22 44.5 67.108 1 0 0
22 39.908 66.195 1 0 0
22 46.841 43.339 1 0 0
22 49.092 44.021 1 0 0
22 46.841 66.877 1 0 0
22 49.092 66.195 1 0 0
22 51.167 65.086 1 0 0
22 52.985 63.593 1 0 0
22 54.478 61.775 1 0 0
22 55.587 59.7 1 0 0
22 56.269 57.449 1 0 0
22 56.5 55.108 1 0 0
22 52.985 46.623 1 0 0
22 56.269 52.767 1 0 0
22 54.478 48.441 1 0 0
22 55.587 50.516 1 0 0
22 37.833 65.086 1 0 0
22 36.015 63.593 1 0 0
22 44.5 43.108 1 0 0
22 34.522 61.775 1 0 0
22 33.413 59.7 1 0 0
22 32.731 57.449 1 0 0
22 32.5 55.108 1 0 0
22 32.731 52.767 1 0 0
22 33.413 50.516 1 0 0
22 34.522 48.441 1 0 0
22 36.015 46.623 1 0 0
22 42.159 43.339 1 0 0
22 37.833 45.13 1 0 0
22 39.908 44.021 1 0 0
21 44.5 43.108 0 -0.0981989 -0.995167
22 44.5 43.108 0 -0.0981989 -0.995167
21 43.6237 43.1945 0 -0.0981989 -0.995167
22 42.159 43.339 0 -0.0981989 -0.995167
-6 42.159 43.339 0 -0.0981989 -0.995167
-5 43.6237 43.1945 0 -0.0981989 -0.995167
-6 44.5 43.108 0 -0.0981989 -0.995167
-5 44.5 43.108 0 -0.0981989 -0.995167
-5 80.816 36.284 -1 0 0
-5 57.507 26.227 -1 0 0
-5 75.697 39.869 -1 0 0
-5 76.573 40.527 -1 0 0
-5 59.603 8 -1 0 0
-5 48.289 19.314 -1 0 0
-5 52.985 46.623 -1 0 0
-5 49.092 44.021 -1 0 0
-5 51.167 45.13 -1 0 0
-5 43.6237 43.1945 -1 0 0
-5 44.5 43.108 -1 0 0
-5 46.841 43.339 -1 0 0
-5 54.478 48.441 -1 0 0
-5 55.587 50.516 -1 0 0
-5 56.269 52.767 -1 0 0
-5 56.5 55.108 -1 0 0
-5 56.4498 55.6166 -1 0 0
-6 37.833 65.086 0 -0.634649 0.772801
-6 36.015 63.593 0 -0.634649 0.772801
22 37.833 65.086 0 -0.634649 0.772801
22 36.015 63.593 0 -0.634649 0.772801
22 39.908 66.195 0 -0.47136 0.881941
-6 39.908 66.195 0 -0.47136 0.881941
22 37.833 65.086 0 -0.47136 0.881941
-6 37.833 65.086 0 -0.47136 0.881941
22 56.269 57.449 0 0.957039 0.28996
-6 56.269 57.449 0 0.957039 0.28996
-6 55.587 59.7 0 0.957039 0.28996
22 55.587 59.7 0 0.957039 0.28996
22 51.167 45.13 0 0.47136 -0.881941
22 49.092 44.021 0 0.47136 -0.881941
21 49.092 44.021 0 0.47136 -0.881941
21 51.167 45.13 0 0.47136 -0.881941
22 49.092 44.021 0 0.28996 -0.957039
22 46.841 43.339 0 0.28996 -0.957039
21 46.841 43.339 0 0.28996 -0.957039
21 49.092 44.021 0 0.28996 -0.957039
22 46.841 43.339 0 0.0981989 -0.995167
22 44.5 43.108 0 0.0981989 -0.995167
21 44.5 43.108 0 0.0981989 -0.995167
21 46.841 43.339 0 0.0981989 -0.995167
-6 56.269 57.449 0 0.995167 0.0981989
22 56.269 57.449 0 0.995167 0.0981989
-5 56.4498 55.6166 0 0.995167 0.0981989
-6 56.5 55.108 0 0.995167 0.0981989
21 56.4498 55.6166 0 0.995167 0.0981989
22 56.5 55.108 0 0.995167 0.0981989
-5 56.5 55.108 0 0.995167 0.0981989
21 56.5 55.108 0 0.995167 0.0981989
-6 32.731 57.449 0 -0.995167 0.0981989
22 32.5 55.108 0 -0.995167 0.0981989
22 32.731 57.449 0 -0.995167 0.0981989
-6 32.5 55.108 0 -0.995167 0.0981989
-5 75.697 39.869 0 0.633236 0.773959
-5 56.4498 55.6166 0 0.633236 0.773959
21 75.697 39.869 0 0.633236 0.773959
21 56.4498 55.6166 0 0.633236 0.773959
-6 42.159 66.877 0 -0.28996 0.957039
-6 39.908 66.195 0 -0.28996 0.957039
22 39.908 66.195 0 -0.28996 0.957039
22 42.159 66.877 0 -0.28996 0.957039
-6 32.731 52.767 0 -0.957039 -0.28996
-6 33.413 50.516 0 -0.957039 -0.28996
22 32.731 52.767 0 -0.957039 -0.28996
22 33.413 50.516 0 -0.957039 -0.28996
21 51.167 45.13 1 0 0
21 57.507 26.227 1 0 0
21 52.985 46.623 1 0 0
21 49.092 44.021 1 0 0
21 75.697 39.869 1 0 0
21 54.478 48.441 1 0 0
21 55.587 50.516 1 0 0
21 56.269 52.767 1 0 0
21 56.5 55.108 1 0 0
21 56.4498 55.6166 1 0 0
21 80.816 36.284 1 0 0
21 76.573 40.527 1 0 0
21 59.603 8 1 0 0
21 48.289 19.314 1 0 0
21 46.841 43.339 1 0 0
21 44.5 43.108 1 0 0
21 43.6237 43.1945 1 0 0
-5 56.269 52.767 0 0.995167 -0.0981989
-6 56.269 52.767 0 0.995167 -0.0981989
-6 56.5 55.108 0 0.995167 -0.0981989
-5 56.5 55.108 0 0.995167 -0.0981989
-5 56.269 52.767 0 0.957039 -0.28996
-5 55.587 50.516 0 0.957039 -0.28996
-6 55.587 50.516 0 0.957039 -0.28996
-6 56.269 52.767 0 0.957039 -0.28996
-5 55.587 50.516 0 0.881941 -0.47136
-5 54.478 48.441 0 0.881941 -0.47136
-6 54.478 48.441 0 0.881941 -0.47136
-6 55.587 50.516 0 0.881941 -0.47136
-5 54.478 48.441 0 0.772801 -0.634649
-5 52.985 46.623 0 0.772801 -0.634649
-6 52.985 46.623 0 0.772801 -0.634649
-6 54.478 48.441 0 0.772801 -0.634649
22 56.5 55.108 0 0.995167 -0.0981989
22 56.269 52.767 0 0.995167 -0.0981989
21 56.269 52.767 0 0.995167 -0.0981989
21 56.5 55.108 0 0.995167 -0.0981989
-6 49.092 66.195 0 0.47136 0.881941
22 51.167 65.086 0 0.47136 0.881941
-6 51.167 65.086 0 0.47136 0.881941
22 49.092 66.195 0 0.47136 0.881941
-5 52.985 46.623 0 0.634649 -0.772801
-5 51.167 45.13 0 0.634649 -0.772801
-6 51.167 45.13 0 0.634649 -0.772801
-6 52.985 46.623 0 0.634649 -0.772801
22 56.269 52.767 0 0.957039 -0.28996
22 55.587 50.516 0 0.957039 -0.28996
21 55.587 50.516 0 0.957039 -0.28996
21 56.269 52.767 0 0.957039 -0.28996
-6 49.092 44.021 0 0.47136 -0.881941
-6 51.167 45.13 0 0.47136 -0.881941
-5 51.167 45.13 0 0.47136 -0.881941
-5 49.092 44.021 0 0.47136 -0.881941
-6 51.167 65.086 0 0.634649 0.772801
22 51.167 65.086 0 0.634649 0.772801
-6 52.985 63.593 0 0.634649 0.772801
22 52.985 63.593 0 0.634649 0.772801
22 55.587 50.516 0 0.881941 -0.47136
22 54.478 48.441 0 0.881941 -0.47136
21 54.478 48.441 0 0.881941 -0.47136
21 55.587 50.516 0 0.881941 -0.47136
-6 52.985 63.593 0 0.772801 0.634649
22 52.985 63.593 0 0.772801 0.634649
-6 54.478 61.775 0 0.772801 0.634649
22 54.478 61.775 0 0.772801 0.634649
22 54.478 48.441 0 0.772801 -0.634649
22 52.985 46.623 0 0.772801 -0.634649
21 52.985 46.623 0 0.772801 -0.634649
21 54.478 48.441 0 0.772801 -0.634649
22 52.985 46.623 0 0.634649 -0.772801
22 51.167 45.13 0 0.634649 -0.772801
21 51.167 45.13 0 0.634649 -0.772801
21 52.985 46.623 0 0.634649 -0.772801
22 54.478 61.775 0 0.881941 0.47136
22 55.587 59.7 0 0.881941 0.47136
-6 54.478 61.775 0 0.881941 0.47136
-6 55.587 59.7 0 0.881941 0.47136
-6 32.731 57.449 0 -0.957039 0.28996
22 32.731 57.449 0 -0.957039 0.28996
22 33.413 59.7 0 -0.957039 0.28996
-6 33.413 59.7 0 -0.957039 0.28996
22 32.5 55.108 0 -0.995167 -0.0981989
-6 32.5 55.108 0 -0.995167 -0.0981989
-6 32.731 52.767 0 -0.995167 -0.0981989
22 32.731 52.767 0 -0.995167 -0.0981989
22 34.522 61.775 0 -0.881941 0.47136
-6 34.522 61.775 0 -0.881941 0.47136
22 33.413 59.7 0 -0.881941 0.47136
-6 33.413 59.7 0 -0.881941 0.47136
21 48.289 19.314 0 -0.707107 -0.707107
-5 48.289 19.314 0 -0.707107 -0.707107
-5 59.603 8 0 -0.707107 -0.707107
21 59.603 8 0 -0.707107 -0.707107
21 43.6237 43.1945 0 -0.773938 -0.633261
-5 43.6237 43.1945 0 -0.773938 -0.633261
21 57.507 26.227 0 -0.773938 -0.633261
-5 57.507 26.227 0 -0.773938 -0.633261
22 36.015 63.593 0 -0.772801 0.634649
-6 36.015 63.593 0 -0.772801 0.634649
22 34.522 61.775 0 -0.772801 0.634649
-6 34.522 61.775 0 -0.772801 0.634649
22 34.522 48.441 0 -0.772801 -0.634649
-6 34.522 48.441 0 -0.772801 -0.634649
-6 36.015 46.623 0 -0.772801 -0.634649
22 36.015 46.623 0 -0.772801 -0.634649
-6 34.522 48.441 0 -0.881941 -0.47136
22 34.522 48.441 0 -0.881941 -0.47136
-6 33.413 50.516 0 -0.881941 -0.47136
22 33.413 50.516 0 -0.881941 -0.47136
22 42.159 66.877 0 -0.0981989 0.995167
22 44.5 67.108 0 -0.0981989 0.995167
-6 44.5 67.108 0 -0.0981989 0.995167
-6 42.159 66.877 0 -0.0981989 0.995167
-6 44.5 67.108 0 0.0981989 0.995167
22 44.5 67.108 0 0.0981989 0.995167
22 46.841 66.877 0 0.0981989 0.995167
-6 46.841 66.877 0 0.0981989 0.995167
-6 49.092 66.195 0 0.28996 0.957039
22 46.841 66.877 0 0.28996 0.957039
22 49.092 66.195 0 0.28996 0.957039
-6 46.841 66.877 0 0.28996 0.957039
-6 49.092 44.021 -1 0 0
-6 46.841 43.339 -1 0 0
-6 46.841 66.877 -1 0 0
-6 49.092 66.195 -1 0 0
-6 51.167 65.086 -1 0 0
-6 51.167 45.13 -1 0 0
-6 44.5 67.108 -1 0 0
-6 42.159 66.877 -1 0 0
-6 39.908 66.195 -1 0 0
-6 37.833 65.086 -1 0 0
-6 36.015 63.593 -1 0 0
-6 34.522 61.775 -1 0 0
-6 33.413 59.7 -1 0 0
-6 32.731 57.449 -1 0 0
-6 32.5 55.108 -1 0 0
-6 32.731 52.767 -1 0 0
-6 33.413 50.516 -1 0 0
-6 34.522 48.441 -1 0 0
-6 36.015 46.623 -1 0 0
-6 37.833 45.13 -1 0 0
-6 44.5 43.108 -1 0 0
-6 42.159 43.339 -1 0 0
-6 39.908 44.021 -1 0 0
-6 52.985 46.623 -1 0 0
-6 52.985 63.593 -1 0 0
-6 54.478 61.775 -1 0 0
-6 55.587 59.7 -1 0 0
-6 56.269 57.449 -1 0 0
-6 56.5 55.108 -1 0 0
-6 56.269 52.767 -1 0 0
-6 55.587 50.516 -1 0 0
-6 54.478 48.441 -1 0 0
21 76.573 40.527 0 -0.600584 0.799562
-5 76.573 40.527 0 -0.600584 0.799562
-5 75.697 39.869 0 -0.600584 0.799562
21 75.697 39.869 0 -0.600584 0.799562
21 76.573 40.527 0 0.707107 0.707107
-5 80.816 36.284 0 0.707107 0.707107
-5 76.573 40.527 0 0.707107 0.707107
21 80.816 36.284 0 0.707107 0.707107
21 57.507 26.227 0 -0.599972 0.800021
-5 57.507 26.227 0 -0.599972 0.800021
-5 48.289 19.314 0 -0.599972 0.800021
21 48.289 19.314 0 -0.599972 0.800021
-5 49.092 44.021 0 0.28996 -0.957039
-5 46.841 43.339 0 0.28996 -0.957039
-6 46.841 43.339 0 0.28996 -0.957039
-6 49.092 44.021 0 0.28996 -0.957039
-5 46.841 43.339 0 0.0981989 -0.995167
-5 44.5 43.108 0 0.0981989 -0.995167
-6 44.5 43.108 0 0.0981989 -0.995167
-6 46.841 43.339 0 0.0981989 -0.995167
22 42.159 43.339 0 -0.28996 -0.957039
22 39.908 44.021 0 -0.28996 -0.957039
-6 39.908 44.021 0 -0.28996 -0.957039
-6 42.159 43.339 0 -0.28996 -0.957039
-6 37.833 45.13 0 -0.47136 -0.881941
-6 39.908 44.021 0 -0.47136 -0.881941
22 37.833 45.13 0 -0.47136 -0.881941
22 39.908 44.021 0 -0.47136 -0.881941
-6 37.833 45.13 0 -0.634649 -0.772801
22 37.833 45.13 0 -0.634649 -0.772801
-6 36.015 46.623 0 -0.634649 -0.772801
22 36.015 46.623 0 -0.634649 -0.772801
3 0 1 2
3 0 2 3
3 4 5 6
3 7 8 4
3 5 4 9
3 9 4 8
3 10 6 5
3 11 10 5
3 5 12 11
3 5 13 12
3 5 14 13
3 5 15 14
3 5 16 15
3 17 16 18
3 5 18 16
3 19 17 18
3 20 21 18
3 21 19 18
3 7 22 8
3 22 23 8
3 24 8 23
3 24 23 25
3 24 25 26
3 26 27 24
3 27 28 24
3 29 24 28
3 24 29 30
3 24 30 31
3 24 31 32
3 24 32 33
3 34 35 32
3 33 32 35
3 36 37 38
3 39 38 37
3 39 40 38
3 41 38 40
3 42 41 40
3 43 41 42
3 44 45 46
3 47 44 46
3 48 45 44
3 48 49 45
3 46 45 50
3 51 52 45
3 45 53 54
3 52 50 45
3 54 55 45
3 55 51 45
3 50 56 46
3 57 46 56
3 57 58 46
3 59 46 58
3 60 46 59
3 61 62 63
3 64 63 62
3 65 66 67
3 68 67 66
3 69 70 71
3 71 72 69
3 73 74 75
3 73 75 76
3 77 78 79
3 77 79 80
3 81 82 83
3 81 83 84
3 85 86 87
3 85 87 88
3 89 87 86
3 86 90 89
3 91 88 87
3 92 89 90
3 93 94 95
3 96 94 93
3 97 98 99
3 98 100 99
3 101 102 103
3 101 103 104
3 105 106 107
3 108 107 106
3 109 110 111
3 112 110 109
3 113 111 110
3 111 113 114
3 115 114 113
3 116 115 113
3 117 116 113
3 113 118 117
3 110 119 113
3 120 113 119
3 119 110 121
3 122 121 110
3 110 112 123
3 124 125 110
3 124 110 123
3 126 127 128
3 126 128 129
3 130 131 132
3 130 132 133
3 134 135 136
3 134 136 137
3 138 139 140
3 138 140 141
3 142 143 144
3 142 144 145
3 146 147 148
3 147 146 149
3 150 151 152
3 150 152 153
3 154 155 156
3 154 156 157
3 158 159 160
3 160 161 158
3 162 163 164
3 165 164 163
3 166 167 168
3 166 168 169
3 170 171 172
3 173 172 171
3 174 175 176
3 174 176 177
3 178 179 180
3 178 180 181
3 182 183 184
3 185 184 183
3 186 187 188
3 189 186 188
3 190 191 192
3 190 192 193
3 194 195 196
3 195 197 196
3 198 199 200
3 198 200 201
3 202 203 204
3 204 203 205
3 206 207 208
3 209 208 207
3 210 211 212
3 212 213 210
3 214 215 216
3 217 216 215
3 218 219 220
3 218 220 221
3 222 223 224
3 224 225 222
3 226 227 228
3 226 229 227
3 230 231 232
3 233 230 232
3 234 230 233
3 230 234 235
3 236 232 231
3 237 236 231
3 238 237 231
3 231 239 238
3 231 240 239
3 231 241 240
3 231 242 241
3 242 231 243
3 244 243 231
3 244 231 245
3 246 245 231
3 231 247 246
3 231 248 247
3 231 249 248
3 231 250 251
3 231 251 252
3 231 252 249
3 253 235 234
3 253 234 254
3 253 254 255
3 253 255 256
3 253 256 257
3 253 257 258
3 253 258 259
3 253 259 260
3 253 260 261
3 262 263 264
3 262 264 265
3 266 267 268
3 266 269 267
3 270 271 272
3 270 272 273
3 274 275 276
3 274 276 277
3 278 279 280
3 278 280 281
3 282 283 284
3 282 284 285
3 286 287 288
3 289 288 287
3 290 291 292
3 293 292 291
